<mxfile host="app.diagrams.net" agent="Mozilla/5.0 (Windows NT 10.0; Win64; x64) AppleWebKit/537.36 (KHTML, like Gecko) Chrome/131.0.0.0 Safari/537.36" version="24.9.2">
  <diagram name="Page-1" id="4ZXEcbJ6n9vgvBZhptEH">
    <mxGraphModel dx="1730" dy="1629" grid="1" gridSize="10" guides="1" tooltips="1" connect="1" arrows="1" fold="1" page="1" pageScale="1" pageWidth="850" pageHeight="1100" math="0" shadow="0">
      <root>
        <mxCell id="0" />
        <mxCell id="1" parent="0" />
        <mxCell id="1T8DP2s5063KryROqJGt-1" value="&lt;div style=&quot;text-align: justify;&quot;&gt;&lt;font style=&quot;font-size: 14px;&quot;&gt;&lt;b&gt;LIBRARY MANAGMENT SYSTEM&lt;/b&gt;&lt;/font&gt;&lt;/div&gt;" style="ellipse;whiteSpace=wrap;html=1;aspect=fixed;fillColor=#3333FF;" vertex="1" parent="1">
          <mxGeometry x="470" y="-40" width="240" height="240" as="geometry" />
        </mxCell>
        <mxCell id="1T8DP2s5063KryROqJGt-2" value="" style="shape=flexArrow;endArrow=classic;html=1;rounded=0;fillColor=#000000;strokeColor=#666666;width=0;endSize=8.73;strokeWidth=4;" edge="1" parent="1" source="1T8DP2s5063KryROqJGt-7" target="1T8DP2s5063KryROqJGt-1">
          <mxGeometry width="50" height="50" relative="1" as="geometry">
            <mxPoint x="170" y="160" as="sourcePoint" />
            <mxPoint x="340" y="150" as="targetPoint" />
          </mxGeometry>
        </mxCell>
        <mxCell id="1T8DP2s5063KryROqJGt-3" value="" style="shape=flexArrow;endArrow=classic;html=1;rounded=0;fillColor=#9999FF;strokeColor=#82b366;" edge="1" parent="1" target="1T8DP2s5063KryROqJGt-1">
          <mxGeometry width="50" height="50" relative="1" as="geometry">
            <mxPoint x="240" y="330" as="sourcePoint" />
            <mxPoint x="380" y="220" as="targetPoint" />
          </mxGeometry>
        </mxCell>
        <mxCell id="1T8DP2s5063KryROqJGt-4" value="" style="shape=flexArrow;endArrow=classic;html=1;rounded=0;entryX=0.5;entryY=1;entryDx=0;entryDy=0;fillColor=#FF0000;strokeColor=#b85450;" edge="1" parent="1" target="1T8DP2s5063KryROqJGt-1">
          <mxGeometry width="50" height="50" relative="1" as="geometry">
            <mxPoint x="440" y="440" as="sourcePoint" />
            <mxPoint x="475" y="330" as="targetPoint" />
          </mxGeometry>
        </mxCell>
        <mxCell id="1T8DP2s5063KryROqJGt-5" value="" style="shape=flexArrow;endArrow=classic;html=1;rounded=0;fillColor=#0400ff;entryX=0.429;entryY=1.018;entryDx=0;entryDy=0;entryPerimeter=0;exitX=1.008;exitY=0.421;exitDx=0;exitDy=0;exitPerimeter=0;" edge="1" parent="1" source="1T8DP2s5063KryROqJGt-1" target="1T8DP2s5063KryROqJGt-11">
          <mxGeometry width="50" height="50" relative="1" as="geometry">
            <mxPoint x="720" y="60" as="sourcePoint" />
            <mxPoint x="670" y="-10" as="targetPoint" />
            <Array as="points">
              <mxPoint x="770" y="40" />
              <mxPoint x="733" y="10" />
            </Array>
          </mxGeometry>
        </mxCell>
        <mxCell id="1T8DP2s5063KryROqJGt-6" value="" style="shape=flexArrow;endArrow=classic;html=1;rounded=0;fillColor=#0844f7;exitX=0;exitY=0.447;exitDx=0;exitDy=0;exitPerimeter=0;entryX=0.471;entryY=-0.008;entryDx=0;entryDy=0;entryPerimeter=0;" edge="1" parent="1" target="1T8DP2s5063KryROqJGt-1">
          <mxGeometry width="50" height="50" relative="1" as="geometry">
            <mxPoint x="660" y="-180" as="sourcePoint" />
            <mxPoint x="648.0799999999999" y="-70.87000000000012" as="targetPoint" />
            <Array as="points">
              <mxPoint x="580" y="-179.99" />
            </Array>
          </mxGeometry>
        </mxCell>
        <mxCell id="1T8DP2s5063KryROqJGt-7" value="&lt;font color=&quot;#ffffff&quot;&gt;ADMIN&lt;/font&gt;" style="ellipse;whiteSpace=wrap;html=1;fillColor=#4D4D4D;" vertex="1" parent="1">
          <mxGeometry x="20" y="10" width="140" height="130" as="geometry" />
        </mxCell>
        <mxCell id="1T8DP2s5063KryROqJGt-8" value="LIBRARIAN" style="ellipse;whiteSpace=wrap;html=1;fillColor=#9999FF;" vertex="1" parent="1">
          <mxGeometry x="120" y="310" width="140" height="140" as="geometry" />
        </mxCell>
        <mxCell id="1T8DP2s5063KryROqJGt-9" value="STUDENT" style="ellipse;whiteSpace=wrap;html=1;fillColor=#FF9999;" vertex="1" parent="1">
          <mxGeometry x="365" y="440" width="165" height="150" as="geometry" />
        </mxCell>
        <mxCell id="1T8DP2s5063KryROqJGt-11" value="LIBRARY BOOKS BASE&amp;nbsp;" style="whiteSpace=wrap;html=1;aspect=fixed;fillColor=#dae8fc;strokeColor=#6c8ebf;" vertex="1" parent="1">
          <mxGeometry x="660" y="-210" width="170" height="170" as="geometry" />
        </mxCell>
        <mxCell id="1T8DP2s5063KryROqJGt-12" value="" style="edgeStyle=orthogonalEdgeStyle;html=1;endArrow=none;elbow=vertical;startArrow=block;startFill=1;strokeColor=#545B64;rounded=0;entryX=0.571;entryY=0;entryDx=0;entryDy=0;entryPerimeter=0;" edge="1" parent="1" target="1T8DP2s5063KryROqJGt-7">
          <mxGeometry width="100" relative="1" as="geometry">
            <mxPoint x="70" y="-60" as="sourcePoint" />
            <mxPoint x="170" y="-60" as="targetPoint" />
          </mxGeometry>
        </mxCell>
        <mxCell id="1T8DP2s5063KryROqJGt-13" value="Security of application&lt;div&gt;&lt;br&gt;&lt;/div&gt;" style="text;html=1;align=center;verticalAlign=middle;resizable=0;points=[];autosize=1;strokeColor=default;fillColor=none;" vertex="1" parent="1">
          <mxGeometry y="-107" width="140" height="40" as="geometry" />
        </mxCell>
        <mxCell id="1T8DP2s5063KryROqJGt-15" value="" style="edgeStyle=orthogonalEdgeStyle;html=1;endArrow=none;elbow=vertical;startArrow=block;startFill=1;strokeColor=#545B64;rounded=0;" edge="1" parent="1">
          <mxGeometry width="100" relative="1" as="geometry">
            <mxPoint x="-70" y="40" as="sourcePoint" />
            <mxPoint x="30" y="40" as="targetPoint" />
          </mxGeometry>
        </mxCell>
        <mxCell id="1T8DP2s5063KryROqJGt-16" value="Authorization and registration of process&lt;div&gt;&lt;br&gt;&lt;/div&gt;" style="text;html=1;align=center;verticalAlign=middle;resizable=0;points=[];autosize=1;strokeColor=default;fillColor=none;" vertex="1" parent="1">
          <mxGeometry x="-310" y="23" width="240" height="40" as="geometry" />
        </mxCell>
        <mxCell id="1T8DP2s5063KryROqJGt-17" value="" style="edgeStyle=orthogonalEdgeStyle;html=1;endArrow=none;elbow=vertical;startArrow=block;startFill=1;strokeColor=#545B64;rounded=0;" edge="1" parent="1">
          <mxGeometry width="100" relative="1" as="geometry">
            <mxPoint x="30" y="340" as="sourcePoint" />
            <mxPoint x="130" y="340" as="targetPoint" />
          </mxGeometry>
        </mxCell>
        <mxCell id="1T8DP2s5063KryROqJGt-19" value="" style="edgeStyle=orthogonalEdgeStyle;html=1;endArrow=none;elbow=vertical;startArrow=block;startFill=1;strokeColor=#545B64;rounded=0;" edge="1" parent="1">
          <mxGeometry width="100" relative="1" as="geometry">
            <mxPoint x="20" y="400" as="sourcePoint" />
            <mxPoint x="120" y="400" as="targetPoint" />
          </mxGeometry>
        </mxCell>
        <mxCell id="1T8DP2s5063KryROqJGt-20" value="ADD books&amp;nbsp;&lt;div&gt;TO BASE with DATE&lt;/div&gt;" style="text;html=1;align=center;verticalAlign=middle;resizable=0;points=[];autosize=1;strokeColor=default;fillColor=none;" vertex="1" parent="1">
          <mxGeometry x="-130" y="380" width="130" height="40" as="geometry" />
        </mxCell>
        <mxCell id="1T8DP2s5063KryROqJGt-21" value="" style="edgeStyle=orthogonalEdgeStyle;html=1;endArrow=none;elbow=vertical;startArrow=block;startFill=1;strokeColor=#545B64;rounded=0;exitX=0.993;exitY=-0.017;exitDx=0;exitDy=0;exitPerimeter=0;" edge="1" parent="1" source="1T8DP2s5063KryROqJGt-22" target="1T8DP2s5063KryROqJGt-8">
          <mxGeometry width="100" relative="1" as="geometry">
            <mxPoint y="480" as="sourcePoint" />
            <mxPoint x="100" y="480" as="targetPoint" />
          </mxGeometry>
        </mxCell>
        <mxCell id="1T8DP2s5063KryROqJGt-22" value="ISSUES BOOKS TO students&lt;div&gt;with DATE of ISSUE and DATE of NEED TO RETURN and DATE of RETURNED&lt;/div&gt;&lt;div&gt;&lt;br&gt;&lt;/div&gt;" style="text;html=1;align=center;verticalAlign=middle;resizable=0;points=[];autosize=1;strokeColor=default;fillColor=none;" vertex="1" parent="1">
          <mxGeometry x="-330" y="470" width="450" height="60" as="geometry" />
        </mxCell>
        <mxCell id="1T8DP2s5063KryROqJGt-23" value="" style="edgeStyle=orthogonalEdgeStyle;html=1;endArrow=none;elbow=vertical;startArrow=block;startFill=1;strokeColor=#545B64;rounded=0;entryX=0.643;entryY=1.007;entryDx=0;entryDy=0;entryPerimeter=0;exitX=1.013;exitY=0.5;exitDx=0;exitDy=0;exitPerimeter=0;" edge="1" parent="1" source="1T8DP2s5063KryROqJGt-24" target="1T8DP2s5063KryROqJGt-8">
          <mxGeometry width="100" relative="1" as="geometry">
            <mxPoint x="60" y="590" as="sourcePoint" />
            <mxPoint x="250" y="530" as="targetPoint" />
          </mxGeometry>
        </mxCell>
        <mxCell id="1T8DP2s5063KryROqJGt-24" value="Sends msg to students" style="text;html=1;align=center;verticalAlign=middle;resizable=0;points=[];autosize=1;strokeColor=default;fillColor=none;" vertex="1" parent="1">
          <mxGeometry x="-145" y="578" width="150" height="30" as="geometry" />
        </mxCell>
        <mxCell id="1T8DP2s5063KryROqJGt-25" value="" style="edgeStyle=orthogonalEdgeStyle;html=1;endArrow=block;elbow=vertical;startArrow=none;endFill=1;strokeColor=#545B64;rounded=0;" edge="1" parent="1">
          <mxGeometry width="100" relative="1" as="geometry">
            <mxPoint x="520" y="480" as="sourcePoint" />
            <mxPoint x="620" y="480" as="targetPoint" />
          </mxGeometry>
        </mxCell>
        <mxCell id="1T8DP2s5063KryROqJGt-26" value="Registers and LIBRARIAN" style="text;html=1;align=center;verticalAlign=middle;resizable=0;points=[];autosize=1;fillColor=none;strokeColor=default;" vertex="1" parent="1">
          <mxGeometry x="620" y="468" width="160" height="30" as="geometry" />
        </mxCell>
        <mxCell id="1T8DP2s5063KryROqJGt-29" value="" style="edgeStyle=orthogonalEdgeStyle;html=1;endArrow=block;elbow=vertical;startArrow=none;endFill=1;strokeColor=#545B64;rounded=0;" edge="1" parent="1">
          <mxGeometry width="100" relative="1" as="geometry">
            <mxPoint x="530" y="530" as="sourcePoint" />
            <mxPoint x="630" y="530" as="targetPoint" />
          </mxGeometry>
        </mxCell>
        <mxCell id="1T8DP2s5063KryROqJGt-30" value="Browses BOOKS from BASE" style="text;html=1;align=center;verticalAlign=middle;resizable=0;points=[];autosize=1;strokeColor=default;fillColor=none;" vertex="1" parent="1">
          <mxGeometry x="630" y="520" width="180" height="30" as="geometry" />
        </mxCell>
        <mxCell id="1T8DP2s5063KryROqJGt-31" value="Picks BOOK" style="text;html=1;align=center;verticalAlign=middle;resizable=0;points=[];autosize=1;strokeColor=default;fillColor=none;" vertex="1" parent="1">
          <mxGeometry x="630" y="568" width="90" height="30" as="geometry" />
        </mxCell>
        <mxCell id="1T8DP2s5063KryROqJGt-32" value="" style="edgeStyle=orthogonalEdgeStyle;html=1;endArrow=block;elbow=vertical;startArrow=none;endFill=1;strokeColor=#545B64;rounded=0;entryX=-0.022;entryY=0.4;entryDx=0;entryDy=0;entryPerimeter=0;" edge="1" parent="1" target="1T8DP2s5063KryROqJGt-31">
          <mxGeometry width="100" relative="1" as="geometry">
            <mxPoint x="500" y="568" as="sourcePoint" />
            <mxPoint x="600" y="568" as="targetPoint" />
          </mxGeometry>
        </mxCell>
      </root>
    </mxGraphModel>
  </diagram>
</mxfile>
